<?xml version="1.0" standalone="no"?>
<!DOCTYPE svg PUBLIC "-//W3C//DTD SVG 20010904//EN"
 "http://www.w3.org/TR/2001/REC-SVG-20010904/DTD/svg10.dtd">
<svg version="1.0" xmlns="http://www.w3.org/2000/svg"
 width="700.000000pt" height="700.000000pt" viewBox="0 0 700.000000 700.000000"
 preserveAspectRatio="xMidYMid meet">
<metadata>
Created by potrace 1.11, written by Peter Selinger 2001-2013
</metadata>
<g transform="translate(0.000000,700.000000) scale(0.100000,-0.100000)"
fill="#000000" stroke="none">
<path d="M1810 5716 c-71 -15 -99 -31 -110 -62 -6 -16 -10 -787 -10 -2035 l0
-2009 -72 36 c-230 115 -412 318 -503 557 -73 196 -91 445 -46 662 59 288 183
569 382 865 l77 115 -10 70 c-13 96 -15 100 -34 84 -34 -28 -212 -259 -291
-378 -94 -141 -226 -394 -273 -522 -200 -549 -151 -1015 143 -1356 208 -242
539 -397 967 -454 107 -14 410 -18 544 -6 769 65 1619 416 2326 961 663 511
1141 1181 1269 1778 107 498 -30 924 -390 1213 -113 91 -309 186 -494 238
-108 31 -291 65 -299 56 -2 -2 -5 -42 -7 -88 l-4 -83 85 -23 c517 -135 832
-451 905 -905 98 -617 -316 -1418 -1048 -2027 -49 -40 -93 -73 -98 -73 -5 0
-10 693 -11 1666 l-3 1666 -23 19 c-37 29 -88 40 -221 46 -137 6 -239 -7 -289
-37 l-32 -20 0 -875 0 -875 -22 -5 c-13 -3 -455 -4 -983 -3 l-960 3 -3 869 -2
870 -21 22 c-32 34 -136 54 -271 53 -62 0 -138 -6 -168 -13z m2430 -3038 c0
-398 -4 -728 -8 -735 -6 -10 -302 -163 -316 -163 -2 0 -33 -13 -68 -29 -94
-43 -178 -75 -328 -125 -256 -85 -460 -130 -760 -166 -94 -11 -403 -14 -456
-4 l-34 6 0 969 0 969 985 0 985 0 0 -722z"/>
<path d="M2497 3190 c-48 -38 -45 -77 11 -182 67 -126 120 -225 217 -408 45
-85 134 -252 197 -370 63 -118 145 -273 183 -345 75 -142 101 -175 139 -175
40 0 72 37 134 155 51 96 100 189 287 540 24 44 94 177 157 295 232 435 230
429 179 481 l-29 29 -725 0 c-714 0 -725 0 -750 -20z"/>
<path d="M3203 5585 c-12 -8 -87 -140 -169 -292 -81 -153 -164 -309 -184 -348
-348 -652 -390 -734 -390 -754 0 -12 13 -35 29 -53 l29 -33 704 -3 c486 -2
715 0 740 8 44 13 73 58 64 99 -3 14 -38 89 -79 166 -128 242 -189 357 -239
449 -26 49 -48 91 -48 94 0 2 -24 47 -54 101 -29 53 -106 197 -171 320 -65
123 -128 232 -139 242 -24 23 -64 24 -93 4z"/>
<path d="M6295 3760 c-4 -19 -16 -53 -25 -75 -10 -22 -32 -76 -50 -120 -43
-109 -156 -315 -251 -457 -315 -470 -845 -972 -1374 -1301 -369 -230 -650
-363 -1060 -503 -219 -75 -448 -130 -705 -169 -179 -28 -485 -40 -695 -27
-256 16 -377 37 -578 103 -263 86 -470 225 -657 443 -75 87 -189 266 -190 298
0 9 -4 20 -10 23 -5 3 -10 15 -10 25 0 10 -4 21 -10 25 -17 11 20 -99 69 -200
60 -126 142 -234 267 -355 166 -160 327 -256 553 -330 247 -81 460 -105 850
-97 420 9 703 58 1115 194 837 274 1628 813 2198 1497 191 229 311 411 428
651 68 140 155 375 147 398 -2 7 -8 -4 -12 -23z"/>
</g>
</svg>
